<svg xmlns="http://www.w3.org/2000/svg" width="800" height="450" viewBox="0 0 800 450">
  <defs>
    <linearGradient id="bg1" x1="0" y1="0" x2="1" y2="1">
      <stop offset="0" stop-color="#1a0a02"/>
      <stop offset="1" stop-color="#0a0a0a"/>
    </linearGradient>
    <radialGradient id="glow1" cx="0.5" cy="0.4" r="0.7">
      <stop offset="0" stop-color="#FF6B00" stop-opacity="0.55"/>
      <stop offset="1" stop-color="#FF6B00" stop-opacity="0"/>
    </radialGradient>
    <linearGradient id="txt1" x1="0" y1="0" x2="1" y2="0">
      <stop offset="0" stop-color="#FF6B00"/>
      <stop offset="1" stop-color="#FF3CAC"/>
    </linearGradient>
  </defs>
  <rect width="800" height="450" fill="url(#bg1)"/>
  <rect width="800" height="450" fill="url(#glow1)"/>
  <g opacity="0.25" stroke="#FF6B00" stroke-width="4" stroke-linecap="round">
    <rect x="40" y="40" width="720" height="370" rx="28" fill="none" stroke-opacity="0.15"/>
  </g>
  <g fill="#FF6B00" opacity="0.8">
    <rect x="120" y="330" width="10" height="40" rx="5"/>
    <rect x="140" y="310" width="10" height="80" rx="5"/>
    <rect x="160" y="325" width="10" height="50" rx="5"/>
    <rect x="180" y="295" width="10" height="110" rx="5"/>
    <rect x="200" y="315" width="10" height="70" rx="5"/>
    <rect x="220" y="300" width="10" height="100" rx="5"/>
    <rect x="240" y="330" width="10" height="40" rx="5"/>
  </g>
  <g fill="#FF3CAC" opacity="0.6">
    <rect x="280" y="320" width="10" height="60" rx="5"/>
    <rect x="300" y="335" width="10" height="30" rx="5"/>
    <rect x="320" y="305" width="10" height="90" rx="5"/>
    <rect x="340" y="290" width="10" height="120" rx="5"/>
    <rect x="360" y="315" width="10" height="70" rx="5"/>
    <rect x="380" y="325" width="10" height="50" rx="5"/>
  </g>
  <g opacity="0.35" stroke="#ffffff">
    <line x1="120" y1="120" x2="400" y2="120" stroke-width="2" stroke-linecap="round"/>
    <line x1="120" y1="140" x2="330" y2="140" stroke-width="2" stroke-linecap="round"/>
  </g>
  <text x="120" y="105" font-family="sans-serif" font-size="16" font-weight="600" letter-spacing="4" fill="#A0A0A0">THE BHUBANESWAR CREW</text>
  <text x="120" y="225" font-family="sans-serif" font-size="42" font-weight="700" fill="url(#txt1)">Ep 01 - First Mic</text>
  <text x="120" y="258" font-family="sans-serif" font-size="20" fill="#D9D9D9">Guest: Sana Rout · 48 min</text>
  <circle cx="640" cy="225" r="52" fill="rgba(255,255,255,0.06)" stroke="rgba(255,107,0,0.5)" stroke-width="2"/>
  <polygon points="628,203 628,247 668,225" fill="#FF6B00"/>
</svg>
